{
  "title": "Aloha {2015} NEW HQTS XVID MP3-MRG",
  "uid": 12064550,
  "size": 1098844867,
  "categoryP": "video",
  "categoryS": "movies",
  "magnet": "?xt=urn:btih:932876dcfd2f0e30172065ffb76ec537c24286db&amp;dn=Aloha+%7B2015%7D+NEW+HQTS+XVID+MP3-MRG&amp;tr=udp%3A%2F%2Ftracker.openbittorrent.com%3A80&amp;tr=udp%3A%2F%2Fopen.demonii.com%3A1337&amp;tr=udp%3A%2F%2Ftracker.coppersurfer.tk%3A6969&amp;tr=udp%3A%2F%2Fexodus.desync.com%3A6969",
  "seeders": 77,
  "leechers": 2,
  "uploader": "SaM",
  "files": 14,
  "time": 1435355673,
  "description": "Aloha {2015} NEW HQTS XVID MP3-MRG\n\nFormat                      : AVI\nFormat/Info                 : Audio Video Interleave\nFile size                   : 1.02 GiB\nDuration                    : 1h 18mn\nOverall bit rate            : 1 867 Kbps\nWriting library             : VirtualDub build 35491/release\n\nVideo\nID                          : 0\nFormat                      : MPEG-4 Visual\nFormat profile              : Advanced Simple@L5\nFormat settings, BVOP       : 2\nFormat settings, QPel       : No\nFormat settings, GMC        : No warppoints\nFormat settings, Matrix     : Default (H.263)\nMuxing mode                 : Packed bitstream\nCodec ID                    : XVID\nCodec ID/Hint               : XviD\nDuration                    : 1h 18mn\nBit rate                    : 1 730 Kbps\nWidth                       : 640 pixels\nHeight                      : 336 pixels\nDisplay aspect ratio        : 1.905\nFrame rate                  : 25.000 fps\nColor space                 : YUV\nChroma subsampling          : 4:2:0\nBit depth                   : 8 bits\nScan type                   : Progressive\nCompression mode            : Lossy\nBits/(Pixel*Frame)          : 0.322\nStream size                 : 969 MiB (93%)\nWriting library             : XviD 73\n\nAudio\nID                          : 1\nFormat                      : MPEG Audio\nFormat version              : Version 1\nFormat profile              : Layer 3\nCodec ID                    : 55\nCodec ID/Hint               : MP3\nDuration                    : 1h 18mn\nBit rate mode               : Constant\nBit rate                    : 128 Kbps\nChannel(s)                  : 2 channels\nSampling rate               : 48.0 KHz\nCompression mode            : Lossy\nStream size                 : 71.7 MiB (7%)\nAlignment                   : Split accross interleaves\nInterleave, duration        : 40 ms (1.00 video frame)\nInterleave, preload duratio : 500 ms\nWriting library             : LAMELAME_MAJOR_VERSI\n &lt;a href=&quot;\nhttp://extraimago.com/image/sJP&quot; rel=&quot;nofollow&quot; target=&quot;_NEW&quot;&gt;\nhttp://extraimago.com/image/sJP&lt;/a&gt; &lt;a href=&quot;\nhttp://extraimago.com/image/sJG&quot; rel=&quot;nofollow&quot; target=&quot;_NEW&quot;&gt;\nhttp://extraimago.com/image/sJG&lt;/a&gt; &lt;a href=&quot;\nhttp://extraimago.com/image/sJr&quot; rel=&quot;nofollow&quot; target=&quot;_NEW&quot;&gt;\nhttp://extraimago.com/image/sJr&lt;/a&gt; &lt;a href=&quot;\nhttp://extraimago.com/image/sJp&quot; rel=&quot;nofollow&quot; target=&quot;_NEW&quot;&gt;\nhttp://extraimago.com/image/sJp&lt;/a&gt; &lt;a href=&quot;\nhttp://extraimago.com/image/sJY&quot; rel=&quot;nofollow&quot; target=&quot;_NEW&quot;&gt;\nhttp://extraimago.com/image/sJY&lt;/a&gt; &lt;a href=&quot;\nhttp://extraimago.com/image/sJC&quot; rel=&quot;nofollow&quot; target=&quot;_NEW&quot;&gt;\nhttp://extraimago.com/image/sJC&lt;/a&gt; &lt;a href=&quot;\nhttp://extraimago.com/image/sJB&quot; rel=&quot;nofollow&quot; target=&quot;_NEW&quot;&gt;\nhttp://extraimago.com/image/sJB&lt;/a&gt; &lt;a href=&quot;\nhttp://extraimago.com/image/sJ4&quot; rel=&quot;nofollow&quot; target=&quot;_NEW&quot;&gt;\nhttp://extraimago.com/image/sJ4&lt;/a&gt; &lt;a href=&quot;\nhttp://extraimago.com/image/sJe&quot; rel=&quot;nofollow&quot; target=&quot;_NEW&quot;&gt;\nhttp://extraimago.com/image/sJe&lt;/a&gt; &lt;a href=&quot;\nhttp://extraimago.com/image/sJZ&quot; rel=&quot;nofollow&quot; target=&quot;_NEW&quot;&gt;\nhttp://extraimago.com/image/sJZ&lt;/a&gt;",
  "parsed": {
    "xt": "urn:btih:932876dcfd2f0e30172065ffb76ec537c24286db",
    "dn": "Aloha {2015} NEW HQTS XVID MP3-MRG",
    "tr": [
      "udp://exodus.desync.com:6969",
      "udp://open.demonii.com:1337",
      "udp://tracker.coppersurfer.tk:6969",
      "udp://tracker.openbittorrent.com:80"
    ],
    "infoHash": "932876dcfd2f0e30172065ffb76ec537c24286db",
    "infoHashBuffer": {
      "type": "Buffer",
      "data": [
        147,
        40,
        118,
        220,
        253,
        47,
        14,
        48,
        23,
        32,
        101,
        255,
        183,
        110,
        197,
        55,
        194,
        66,
        134,
        219
      ]
    },
    "name": "Aloha {2015} NEW HQTS XVID MP3-MRG",
    "announce": [
      "udp://exodus.desync.com:6969",
      "udp://open.demonii.com:1337",
      "udp://tracker.coppersurfer.tk:6969",
      "udp://tracker.openbittorrent.com:80"
    ],
    "urlList": []
  },
  "previous": 79,
  "peers": 18,
  "last_updated": "2016-12-25T08:05:13.595Z"
}